<?xml version="1.0" standalone="no"?>
<!DOCTYPE svg PUBLIC "-//W3C//DTD SVG 20010904//EN"
 "http://www.w3.org/TR/2001/REC-SVG-20010904/DTD/svg10.dtd">
<svg version="1.0" xmlns="http://www.w3.org/2000/svg"
 width="261.000000pt" height="68.000000pt" viewBox="0 0 261.000000 68.000000"
 preserveAspectRatio="xMidYMid meet">

<g transform="translate(0.000000,68.000000) scale(0.100000,-0.100000)"
fill="#000000" stroke="none">
<path d="M68 661 c21 -20 22 -30 22 -157 l0 -136 80 4 c70 3 83 6 106 30 15
15 27 37 27 52 0 29 -28 66 -50 66 -7 0 -13 5 -13 10 0 6 4 10 10 10 19 0 41
47 34 74 -9 39 -55 58 -153 63 l-86 5 23 -21z m137 -15 c31 -13 35 -19 35 -50
0 -41 -20 -56 -74 -56 l-36 0 0 53 c0 73 10 80 75 53z m-7 -135 c27 -1 62 -34
62 -59 0 -35 -37 -62 -85 -62 l-45 0 0 63 c0 60 1 64 23 61 12 -1 32 -3 45 -3z"/>
<path d="M367 674 c-4 -4 -7 -69 -7 -144 0 -148 4 -160 53 -160 29 0 29 0 8
18 -19 15 -21 29 -23 151 -3 125 -10 156 -31 135z"/>
<path d="M478 661 c21 -20 22 -30 22 -157 l0 -136 79 3 c67 4 83 8 105 28 17
16 26 35 26 56 0 31 -25 65 -48 65 -7 0 -12 5 -12 10 0 6 4 10 10 10 19 0 41
47 34 74 -9 38 -53 56 -152 63 l-87 6 23 -22z m137 -15 c29 -12 35 -20 35 -45
0 -41 -24 -61 -71 -61 l-39 0 0 53 c0 73 10 80 75 53z m7 -140 c48 -11 59 -63
22 -101 -9 -9 -34 -15 -60 -15 l-44 0 0 59 c0 59 10 73 45 65 6 -1 22 -5 37
-8z"/>
<path d="M758 660 c21 -19 22 -30 22 -155 0 -128 1 -135 20 -135 18 0 20 7 20
70 0 60 2 70 18 70 10 0 27 -18 41 -45 36 -68 65 -95 102 -95 l32 0 -35 33
c-20 17 -45 48 -56 67 l-21 36 34 27 c39 31 46 67 20 104 -18 25 -84 43 -161
43 l-58 0 22 -20z m127 -14 c31 -13 35 -20 35 -50 0 -40 -28 -66 -72 -66 -27
0 -28 1 -28 59 0 53 4 64 28 70 1 1 18 -6 37 -13z"/>
<path d="M1150 679 c0 -2 -29 -72 -65 -154 -36 -83 -65 -151 -65 -152 0 -2 5
-3 10 -3 6 0 19 20 30 45 l19 45 65 0 c55 0 66 -3 71 -19 12 -38 46 -71 73
-71 23 1 25 2 11 13 -21 16 -37 49 -89 177 -35 89 -60 138 -60 119z m40 -190
c0 -5 -22 -9 -50 -9 -27 0 -50 2 -50 5 0 2 12 30 26 62 l26 58 24 -54 c13 -29
24 -57 24 -62z"/>
<path d="M1318 661 c21 -20 22 -30 22 -156 0 -83 4 -135 10 -135 6 0 10 45 10
115 0 63 3 115 8 115 4 -1 48 -52 97 -115 50 -63 93 -115 98 -115 11 0 9 298
-3 305 -6 4 -10 -33 -10 -104 0 -61 -3 -111 -7 -111 -5 1 -41 44 -82 96 -88
111 -86 110 -131 119 l-35 7 23 -21z"/>
<path d="M1638 665 c21 -15 22 -23 22 -156 l0 -139 68 0 c127 0 197 62 189
166 -7 97 -59 133 -207 141 -90 5 -94 4 -72 -12z m157 -19 c67 -28 94 -118 59
-192 -20 -43 -63 -66 -112 -62 l-37 3 -3 127 c-2 114 -1 127 15 131 32 8 43 7
78 -7z"/>
<path d="M2063 663 c14 -17 17 -40 17 -158 l0 -138 87 5 c79 4 88 7 110 32 12
15 23 38 23 52 0 24 -26 57 -51 66 -11 4 -9 10 8 24 12 10 23 26 24 34 7 67
-26 89 -148 97 -87 6 -88 6 -70 -14z m160 -31 c42 -37 7 -92 -60 -92 l-43 0 0
54 c0 34 5 56 13 59 19 8 70 -4 90 -21z m15 -135 c6 -5 12 -24 12 -42 0 -44
-33 -68 -87 -63 -38 3 -38 3 -41 52 -5 70 -2 74 55 66 26 -3 54 -9 61 -13z"/>
<path d="M2320 672 c0 -5 8 -12 19 -15 10 -2 42 -39 70 -80 49 -73 51 -79 51
-142 0 -62 2 -66 21 -63 18 3 21 10 22 68 2 60 6 72 54 147 29 45 48 85 44 87
-5 3 -28 -27 -53 -66 -24 -39 -48 -73 -53 -75 -6 -1 -23 20 -40 48 -16 27 -39
59 -50 69 -24 22 -85 38 -85 22z"/>
<path d="M1975 400 c-4 -7 -3 -16 3 -22 14 -14 45 -2 40 15 -6 16 -34 21 -43
7z"/>
<path d="M514 178 c3 -13 6 -49 6 -80 l0 -58 36 0 c64 0 97 38 59 70 -11 9
-12 16 -3 30 14 22 4 50 -18 50 -13 0 -14 -3 -4 -15 18 -22 5 -45 -26 -45 -24
0 -26 3 -22 35 3 29 1 35 -15 35 -15 0 -18 -5 -13 -22z m90 -83 c10 -26 -5
-45 -35 -45 -26 0 -29 4 -29 30 0 26 3 30 29 30 16 0 31 -6 35 -15z"/>
<path d="M735 179 c-4 -13 -18 -48 -31 -77 -13 -29 -24 -56 -24 -60 0 -13 40
58 46 83 8 33 22 32 30 -2 10 -40 42 -83 62 -83 12 0 13 3 5 8 -7 5 -24 37
-39 73 -31 78 -40 88 -49 58z"/>
<path d="M878 120 l4 -80 31 0 c73 0 100 24 73 64 -10 16 -11 27 -4 40 11 20
-5 46 -29 46 -12 0 -12 -3 2 -16 20 -20 3 -44 -31 -44 -26 0 -31 18 -14 51 9
16 7 19 -12 19 -22 0 -23 -2 -20 -80z m87 -41 c0 -20 -5 -24 -29 -24 -21 0
-30 5 -32 20 -6 35 3 44 33 36 21 -6 28 -14 28 -32z"/>
<path d="M1076 149 c19 -29 34 -64 34 -80 0 -16 5 -29 10 -29 6 0 10 16 10 35
0 21 11 52 25 75 14 22 21 40 16 40 -5 0 -14 -13 -21 -30 -16 -38 -35 -38 -54
-1 -13 24 -34 41 -51 41 -2 0 12 -23 31 -51z"/>
<path d="M1332 184 c-15 -26 -4 -47 39 -77 22 -15 39 -33 36 -40 -6 -20 -57
-20 -73 0 -14 17 -14 16 -4 -4 21 -45 111 -22 96 24 -4 10 -24 30 -46 45 -26
18 -38 33 -34 43 7 18 45 20 62 3 8 -8 12 -8 12 -1 0 26 -74 32 -88 7z"/>
<path d="M1479 183 c-13 -15 -12 -15 11 -3 34 17 36 20 18 20 -9 0 -22 -7 -29
-17z"/>
<path d="M1530 120 c0 -61 3 -80 14 -80 10 0 13 17 14 63 0 34 1 67 1 74 1 6
11 14 24 16 13 3 8 5 -15 6 l-38 1 0 -80z"/>
<path d="M1682 180 c-16 -15 -22 -32 -22 -64 0 -53 22 -76 73 -76 44 0 67 28
67 80 0 70 -70 105 -118 60z m80 -7 c20 -18 24 -73 8 -104 -14 -26 -66 -26
-80 0 -15 28 -12 73 6 99 18 26 41 28 66 5z"/>
<path d="M1864 184 c3 -9 6 -45 6 -80 0 -36 4 -64 10 -64 6 0 10 16 10 35 0
19 4 35 9 35 5 0 18 -16 30 -35 11 -19 27 -35 36 -35 13 0 11 7 -9 33 l-25 33
20 21 c27 26 18 63 -14 62 -12 0 -16 -3 -9 -6 17 -7 15 -50 -4 -57 -9 -3 -20
-4 -25 0 -14 8 -11 62 4 67 6 3 -1 6 -17 6 -22 1 -27 -3 -22 -15z"/>
<path d="M2044 185 c3 -9 6 -46 6 -81 l0 -64 50 0 c28 0 50 3 50 8 0 4 -18 6
-41 4 -40 -4 -40 -4 -37 28 2 26 8 34 27 37 37 5 38 13 3 13 -29 0 -32 3 -32
30 0 26 4 30 28 30 15 0 34 -6 41 -12 11 -11 13 -10 9 2 -3 10 -21 16 -58 18
-45 3 -52 1 -46 -13z"/>
</g>
</svg>
